<?xml version="1.0" encoding="UTF-8" standalone="no" ?>
<!DOCTYPE svg PUBLIC "-//W3C//DTD SVG 1.1//EN" "http://www.w3.org/Graphics/SVG/1.1/DTD/svg11.dtd">
<svg xmlns="http://www.w3.org/2000/svg" xmlns:xlink="http://www.w3.org/1999/xlink" version="1.1" width="125" height="125" viewBox="0 0 500 500" xml:space="preserve">
<desc>Created with Fabric.js 4.6.0</desc>
<defs>
</defs>
<g transform="matrix(3.12 0 0 3.12 246.11 221.82)" id="lhHQqcZKRWVwzM1zNauMW"  >
<path style="stroke: rgb(244,9,9); stroke-width: 1; stroke-dasharray: none; stroke-linecap: butt; stroke-dashoffset: 0; stroke-linejoin: miter; stroke-miterlimit: 4; fill: none; fill-rule: nonzero; opacity: 1;" vector-effect="non-scaling-stroke"  transform=" translate(-50, -50)" d="M 50.00001 0 C 77.60001 0 100.00002 22.4 100.00002 50.00001 C 100.00002 77.60001 77.60002 100.00002 50.00001 100.00002 C 22.40001 100.00002 0 77.60002 0 50.00001 C 0 22.40001 22.4 0 50.00001 0 z" stroke-linecap="round" />
</g>
<g transform="matrix(3.12 0 0 3.12 250.15 64.26)" id="PY3X3kaa-j8-qWgPNnLgc"  >
<path style="stroke: rgb(106,227,19); stroke-width: 0; stroke-dasharray: none; stroke-linecap: butt; stroke-dashoffset: 0; stroke-linejoin: miter; stroke-miterlimit: 4; fill: rgb(156,4,4); fill-rule: nonzero; opacity: 1;" vector-effect="non-scaling-stroke"  transform=" translate(-2.5, -2.5)" d="M 2.5 0 C 3.88 0 5 1.12 5 2.5 C 5 3.88 3.88 5 2.5 5 C 1.12 5 0 3.88 0 2.5 C 0 1.12 1.12 0 2.5 0 z" stroke-linecap="round" />
</g>
</svg>